<svg width="14" height="20" viewBox="0 0 14 20" fill="none" xmlns="http://www.w3.org/2000/svg">
<path fill-rule="evenodd" clip-rule="evenodd" d="M7.00111 11L7 11C6.24388 11 5.50645 10.7711 4.88107 10.3447C4.25594 9.91849 3.77172 9.31483 3.48657 8.61236C3.20148 7.91006 3.12719 7.13839 3.27228 6.39412C3.41738 5.64976 3.77602 4.96331 4.30589 4.42262C4.83597 3.88172 5.51382 3.511 6.25483 3.3606C6.99598 3.21016 7.76398 3.28756 8.46083 3.5821C9.15746 3.87654 9.74959 4.37375 10.1647 5.0077C10.5797 5.64143 10.8 6.38443 10.8 7.14286V7.14393C10.7989 8.15984 10.4031 9.13779 9.69322 9.86218C8.98265 10.5872 8.01489 10.9989 7.00111 11ZM6.34658 19.2282C6.75086 19.7203 7 20 7 20C7 20 7.24914 19.7203 7.65342 19.2282C9.39207 17.1116 14 11.0648 14 6.42857C14 2.87991 10.8644 0 7 0C3.13556 0 0 2.87991 0 6.42857C0 11.0648 4.60793 17.1116 6.34658 19.2282ZM7 18.4475C7.09646 18.329 7.20044 18.1998 7.31082 18.0609C7.9535 17.2521 8.80908 16.117 9.66283 14.8102C10.5183 13.5009 11.3605 12.0364 11.9863 10.5678C12.6162 9.08939 13 7.66818 13 6.42857C13 3.51063 10.394 1 7 1C3.60601 1 1 3.51063 1 6.42857C1 7.66818 1.38377 9.08939 2.01372 10.5678C2.63946 12.0364 3.48174 13.5009 4.33717 14.8102C5.19092 16.117 6.0465 17.2521 6.68918 18.0609C6.79956 18.1998 6.90354 18.329 7 18.4475ZM7 10C6.44621 10 5.90486 9.83243 5.4444 9.51849C4.98395 9.20454 4.62506 8.75831 4.41314 8.23624C4.20121 7.71416 4.14576 7.13969 4.2538 6.58546C4.36184 6.03123 4.62851 5.52213 5.0201 5.12255C5.41169 4.72297 5.9106 4.45086 6.45375 4.34061C6.99689 4.23037 7.55988 4.28695 8.07151 4.5032C8.58315 4.71945 9.02045 5.08566 9.32811 5.55551C9.63578 6.02537 9.8 6.57777 9.8 7.14286C9.79919 7.90036 9.50393 8.62661 8.979 9.16225C8.45408 9.69789 7.74236 9.99917 7 10Z" fill="#AAAAAA"/>
</svg>
